<?xml version="1.0" encoding="utf-8"?>
<!-- Generator: Adobe Illustrator 24.2.0, SVG Export Plug-In . SVG Version: 6.00 Build 0)  -->
<svg version="1.1" id="Capa_1" xmlns="http://www.w3.org/2000/svg" xmlns:xlink="http://www.w3.org/1999/xlink" x="0px" y="0px"
	 viewBox="0 0 552.9 536.5" style="enable-background:new 0 0 552.9 536.5;" xml:space="preserve">
<style type="text/css">
	.st0{fill:#161A1B;}
	.st1{fill:#CA2F06;}
</style>
<path class="st0" d="M534.8,184.9c0-0.7,0-1.3-0.1-2c0-0.8-0.1-1.6-0.1-2.3c0-0.9-0.1-1.9-0.2-2.8c0-0.5-0.1-1-0.1-1.5
	c-0.1-1.1-0.2-2.2-0.3-3.3c0-0.3-0.1-0.6-0.1-0.9c-0.1-1.2-0.3-2.5-0.4-3.7c0-0.2,0-0.3-0.1-0.5c-0.2-1.3-0.3-2.7-0.5-4
	c0-0.1,0-0.1,0-0.2c-1.2-8.6-3.1-16.9-5.5-25c0-0.1,0-0.1-0.1-0.2c-0.4-1.3-0.8-2.5-1.2-3.8c-0.1-0.2-0.1-0.4-0.2-0.5
	c-0.4-1.1-0.7-2.3-1.1-3.4c-0.1-0.3-0.2-0.6-0.3-1c-0.3-1-0.7-1.9-1.1-2.9c-0.2-0.5-0.4-1-0.6-1.5c-0.3-0.8-0.6-1.6-0.9-2.4
	c-0.3-0.7-0.5-1.3-0.8-2c-0.3-0.6-0.5-1.2-0.8-1.8c-0.4-0.8-0.7-1.6-1.1-2.5c-0.2-0.4-0.4-0.9-0.6-1.3c-0.4-1-0.9-1.9-1.4-2.9
	c-0.1-0.3-0.3-0.6-0.4-0.8c-0.5-1.1-1.1-2.2-1.6-3.3c-0.1-0.1-0.1-0.3-0.2-0.4c-0.6-1.2-1.2-2.4-1.9-3.6c0,0,0-0.1,0-0.1
	c-4.1-7.5-8.7-14.7-13.9-21.6c0,0,0,0,0,0c-0.8-1.1-1.7-2.2-2.5-3.3c-0.1-0.1-0.2-0.2-0.2-0.3c-0.8-1-1.6-2-2.4-3
	c-0.2-0.2-0.3-0.4-0.5-0.6c-0.7-0.9-1.5-1.8-2.2-2.6c-0.3-0.3-0.6-0.7-0.9-1c-0.6-0.7-1.3-1.5-2-2.2c-0.5-0.5-1-1-1.4-1.6
	c-0.5-0.5-1-1.1-1.5-1.6c-2-2.1-4.1-4.2-6.2-6.2c-0.2-0.2-0.4-0.4-0.6-0.6c-0.8-0.8-1.7-1.6-2.6-2.4c-0.2-0.2-0.5-0.4-0.7-0.6
	c-0.8-0.8-1.7-1.5-2.5-2.3c-0.3-0.3-0.7-0.6-1-0.9c-0.7-0.6-1.5-1.3-2.2-1.9c0,0-0.1-0.1-0.1-0.1c0,0,0,0,0,0
	c-30.8-25.3-70.2-40.5-113.1-40.5c-98.4,0-178.2,79.8-178.2,178.2c0,39.8,13.1,76.6,35.1,106.2l-89.9,89.9l36.9,36.9l89.9-89.9
	c6.8,5.1,13.9,9.6,21.3,13.6c0,0,0.1,0,0.1,0.1c1.2,0.6,2.4,1.3,3.6,1.9c0.1,0.1,0.3,0.2,0.4,0.2c1.1,0.6,2.2,1.1,3.3,1.6
	c0.3,0.1,0.6,0.3,0.9,0.4c1,0.5,1.9,0.9,2.9,1.3c0.4,0.2,0.9,0.4,1.4,0.6c0.8,0.4,1.6,0.7,2.4,1.1c0.6,0.3,1.3,0.5,1.9,0.8
	c0.6,0.3,1.3,0.5,1.9,0.8c0.8,0.3,1.6,0.6,2.4,1c0.5,0.2,0.9,0.4,1.4,0.5c1,0.4,2,0.7,2.9,1.1c0.3,0.1,0.6,0.2,0.9,0.3
	c1.1,0.4,2.3,0.8,3.4,1.1c0.2,0.1,0.3,0.1,0.5,0.2c1.3,0.4,2.5,0.8,3.8,1.2c0.1,0,0.1,0,0.2,0c8.1,2.4,16.5,4.2,25,5.5
	c0,0,0.1,0,0.1,0c1.3,0.2,2.7,0.4,4,0.5c0.2,0,0.3,0,0.5,0.1c1.2,0.1,2.5,0.3,3.7,0.4c0.3,0,0.6,0.1,0.9,0.1
	c1.1,0.1,2.2,0.2,3.3,0.3c0.5,0,1,0.1,1.4,0.1c0.9,0.1,1.9,0.1,2.8,0.2c0.8,0,1.5,0.1,2.3,0.1c0.7,0,1.4,0.1,2,0.1
	c2.9,0.1,5.9,0.1,8.8,0c0.7,0,1.4,0,2-0.1c0.8,0,1.5,0,2.3-0.1c0.9,0,1.9-0.1,2.8-0.2c0.5,0,1-0.1,1.4-0.1c1.1-0.1,2.2-0.2,3.3-0.3
	c0.3,0,0.6-0.1,0.9-0.1c1.2-0.1,2.5-0.3,3.7-0.4c0.2,0,0.3,0,0.5-0.1c1.3-0.2,2.7-0.3,4-0.5c0,0,0.1,0,0.1,0
	c8.6-1.2,16.9-3.1,25-5.5c0.1,0,0.1,0,0.2-0.1c1.3-0.4,2.5-0.8,3.8-1.2c0.2-0.1,0.3-0.1,0.5-0.2c1.1-0.4,2.3-0.8,3.4-1.1
	c0.3-0.1,0.6-0.2,0.9-0.3c1-0.3,2-0.7,2.9-1.1c0.5-0.2,0.9-0.4,1.4-0.5c0.8-0.3,1.6-0.6,2.4-0.9c0.6-0.3,1.3-0.5,1.9-0.8
	c0.6-0.3,1.3-0.5,1.9-0.8c0.8-0.3,1.6-0.7,2.4-1.1c0.4-0.2,0.9-0.4,1.3-0.6c1-0.4,1.9-0.9,2.9-1.3c0.3-0.1,0.6-0.3,0.9-0.4
	c1.1-0.5,2.2-1.1,3.3-1.6c0.1-0.1,0.3-0.2,0.4-0.2c1.2-0.6,2.4-1.2,3.6-1.9c0,0,0.1,0,0.1-0.1c7.5-4,14.7-8.7,21.6-13.8
	c0,0,0.1,0,0.1-0.1c1.1-0.8,2.2-1.7,3.3-2.5c0.1-0.1,0.2-0.2,0.3-0.3c1-0.8,2-1.6,3-2.4c0.2-0.2,0.4-0.4,0.6-0.5
	c0.9-0.7,1.7-1.5,2.6-2.2c0.3-0.3,0.7-0.6,1-0.9c0.7-0.6,1.5-1.3,2.2-1.9c0.5-0.5,1.1-1,1.6-1.5c0.5-0.5,1.1-1,1.6-1.5
	c2.1-2,4.2-4.1,6.2-6.2c0.5-0.5,1-1.1,1.5-1.6c0.5-0.5,1-1.1,1.5-1.6c0.7-0.7,1.3-1.4,1.9-2.2c0.3-0.3,0.6-0.7,0.9-1
	c0.7-0.9,1.5-1.7,2.2-2.6c0.2-0.2,0.4-0.4,0.5-0.6c0.8-1,1.6-2,2.4-3c0.1-0.1,0.2-0.2,0.3-0.3c0.8-1.1,1.7-2.2,2.5-3.3
	c0,0,0,0,0.1-0.1c5.2-6.9,9.8-14.2,13.8-21.6c0,0,0-0.1,0.1-0.1c0.6-1.2,1.3-2.4,1.9-3.6c0.1-0.1,0.2-0.3,0.2-0.4
	c0.6-1.1,1.1-2.2,1.6-3.3c0.1-0.3,0.3-0.6,0.4-0.9c0.5-1,0.9-1.9,1.3-2.9c0.2-0.4,0.4-0.9,0.6-1.3c0.4-0.8,0.7-1.6,1.1-2.4
	c0.3-0.6,0.5-1.3,0.8-1.9c0.3-0.6,0.5-1.3,0.8-1.9c0.3-0.8,0.6-1.6,1-2.4c0.2-0.5,0.4-0.9,0.5-1.4c0.4-1,0.7-2,1.1-2.9
	c0.1-0.3,0.2-0.6,0.3-0.9c0.4-1.1,0.8-2.3,1.1-3.4c0.1-0.2,0.1-0.3,0.2-0.5c0.4-1.3,0.8-2.5,1.2-3.8c0-0.1,0-0.1,0-0.2
	c2.4-8.1,4.2-16.5,5.5-25c0-0.1,0-0.1,0-0.2c0.2-1.3,0.4-2.7,0.5-4c0-0.2,0-0.3,0.1-0.5c0.1-1.2,0.3-2.5,0.4-3.7
	c0-0.3,0.1-0.6,0.1-0.9c0.1-1.1,0.2-2.2,0.3-3.3c0-0.5,0.1-1,0.1-1.5c0.1-0.9,0.1-1.9,0.2-2.8c0-0.8,0.1-1.5,0.1-2.3
	c0-0.7,0.1-1.3,0.1-2C534.8,190.8,534.8,187.9,534.8,184.9z M468.1,251.4C468.1,251.5,468.1,251.5,468.1,251.4
	c-0.5,0.9-1,1.7-1.4,2.5c-0.1,0.2-0.2,0.4-0.3,0.6c-0.4,0.6-0.8,1.3-1.1,1.9c-0.2,0.3-0.4,0.7-0.6,1c-0.3,0.5-0.6,1-1,1.5
	c-0.3,0.4-0.6,0.9-0.8,1.3c-0.3,0.4-0.5,0.8-0.8,1.2c-0.3,0.5-0.7,1-1,1.5c-0.2,0.3-0.5,0.7-0.7,1c-0.4,0.5-0.8,1.1-1.2,1.6
	c-0.2,0.3-0.4,0.6-0.7,0.9c-0.4,0.5-0.8,1.1-1.2,1.6c-0.2,0.3-0.4,0.6-0.7,0.8c-0.4,0.5-0.8,1.1-1.3,1.6c-0.2,0.3-0.5,0.6-0.7,0.9
	c-0.4,0.5-0.8,1-1.3,1.5c-0.3,0.3-0.6,0.7-0.9,1c-0.4,0.4-0.8,0.9-1.2,1.3c-0.4,0.4-0.8,0.8-1.1,1.2c-0.3,0.4-0.7,0.7-1,1.1
	c-0.7,0.7-1.3,1.4-2,2.1c-0.1,0.1-0.1,0.1-0.2,0.2c-0.1,0.1-0.1,0.1-0.2,0.2c-0.7,0.7-1.4,1.4-2.1,2c-0.3,0.3-0.7,0.7-1.1,1
	c-0.4,0.4-0.8,0.8-1.2,1.2c-0.4,0.4-0.9,0.8-1.3,1.2c-0.3,0.3-0.7,0.6-1,0.9c-0.5,0.4-1,0.8-1.5,1.2c-0.3,0.3-0.6,0.5-0.9,0.8
	c-0.5,0.4-1,0.8-1.6,1.3c-0.3,0.2-0.6,0.5-0.9,0.7c-0.5,0.4-1.1,0.8-1.6,1.2c-0.3,0.2-0.6,0.5-0.9,0.7c-0.5,0.4-1,0.8-1.5,1.1
	c-0.3,0.2-0.7,0.5-1,0.7c-0.5,0.3-1,0.7-1.4,1c-0.4,0.3-0.8,0.6-1.2,0.8c-0.4,0.3-0.8,0.5-1.2,0.8c-0.5,0.3-1,0.7-1.5,1
	c-0.3,0.2-0.6,0.4-0.9,0.6c-0.6,0.4-1.3,0.8-1.9,1.2c-0.2,0.1-0.4,0.2-0.5,0.3c-0.8,0.5-1.6,1-2.5,1.4c0,0,0,0,0,0
	c-18.4,10.3-39.6,16.1-62.1,16.1c-23.6,0-45.7-6.4-64.7-17.6c-0.2-0.1-0.3-0.2-0.5-0.3c-0.7-0.4-1.4-0.8-2-1.2
	c-0.3-0.2-0.6-0.4-0.9-0.5c-0.5-0.3-1.1-0.7-1.6-1c-0.4-0.3-0.8-0.5-1.2-0.8c-0.4-0.3-0.9-0.6-1.3-0.9c-0.5-0.3-0.9-0.6-1.4-0.9
	c-0.4-0.3-0.7-0.5-1.1-0.8c-0.5-0.4-1-0.7-1.5-1.1c-0.3-0.2-0.7-0.5-1-0.8c-0.5-0.4-1-0.8-1.5-1.1c-0.3-0.3-0.7-0.5-1-0.8
	c-0.5-0.4-1-0.8-1.5-1.2c-0.3-0.3-0.7-0.6-1-0.9c-0.5-0.4-0.9-0.8-1.4-1.1c-0.4-0.3-0.8-0.7-1.2-1c-0.4-0.3-0.8-0.7-1.2-1
	c-0.5-0.5-1-0.9-1.5-1.4c-0.3-0.3-0.5-0.5-0.8-0.8c-1.6-1.5-3.1-3.1-4.6-4.7c-0.2-0.2-0.4-0.4-0.5-0.6c-0.6-0.6-1.2-1.3-1.8-2
	c-0.2-0.2-0.3-0.4-0.5-0.6c-0.6-0.7-1.2-1.4-1.8-2.1c-0.1-0.1-0.2-0.3-0.3-0.4c-0.7-0.8-1.3-1.6-1.9-2.4c0-0.1-0.1-0.1-0.1-0.2
	c0,0,0,0,0,0c-17.5-21.8-27.9-49.5-27.9-79.7c0-70.5,57.1-127.6,127.6-127.6c30.1,0,57.8,10.5,79.7,27.9c0,0,0,0,0,0
	c0.1,0.1,0.2,0.1,0.3,0.2c0.7,0.6,1.5,1.2,2.2,1.8c0.2,0.1,0.4,0.3,0.5,0.4c0.7,0.6,1.3,1.1,2,1.7c0.2,0.2,0.4,0.4,0.7,0.6
	c0.6,0.5,1.2,1.1,1.8,1.7c0.2,0.2,0.5,0.5,0.7,0.7c0.7,0.7,1.4,1.4,2.1,2c0.1,0.1,0.2,0.2,0.3,0.3c0.3,0.3,0.6,0.6,0.9,0.9
	c0.4,0.5,0.9,0.9,1.3,1.4c0.4,0.4,0.8,0.9,1.2,1.3c0.3,0.3,0.6,0.7,0.9,1c0.4,0.5,0.9,1,1.3,1.5c0.2,0.3,0.5,0.6,0.7,0.8
	c0.5,0.5,0.9,1.1,1.4,1.6c0.2,0.3,0.4,0.5,0.6,0.8c0.5,0.6,0.9,1.1,1.4,1.7c0.2,0.2,0.4,0.5,0.6,0.7c0.4,0.6,0.9,1.1,1.3,1.7
	c0.2,0.3,0.4,0.5,0.6,0.8c0.4,0.6,0.8,1.1,1.2,1.7c0.2,0.3,0.4,0.6,0.7,0.9c0.4,0.5,0.7,1,1.1,1.5c0.3,0.4,0.5,0.7,0.8,1.1
	c0.3,0.4,0.6,0.9,0.9,1.3c0.3,0.5,0.6,0.9,0.9,1.4c0.2,0.4,0.4,0.7,0.7,1.1c0.4,0.6,0.7,1.2,1.1,1.8c0.1,0.2,0.3,0.4,0.4,0.7
	c0.5,0.8,0.9,1.6,1.3,2.3c0,0.1,0.1,0.1,0.1,0.2c10.3,18.4,16.1,39.5,16.1,62.1C484.2,211.9,478.4,233.1,468.1,251.4z"/>
<path class="st1" d="M220.8,373.6c-0.2-0.5-0.4-1-0.7-1.5c-0.8-1.4-1.7-2.8-2.9-4l-24.7-24.7c0,0,0,0,0,0l-14.6-14.6
	c-6.5-6.5-16.9-6.5-23.4,0L35.8,447.4c-17.3,17.3-17.3,45.4,0,62.7s45.4,17.3,62.7,0l118.6-118.6c0,0,0,0,0,0l0,0
	C222,386.6,223.2,379.5,220.8,373.6z"/>
</svg>
